<svg xmlns="http://www.w3.org/2000/svg" xmlns:xlink="http://www.w3.org/1999/xlink" viewBox="0 0 662.08 344.24"><defs><style>.cls-1,.cls-5{fill:#d40000;}.cls-1,.cls-2,.cls-3,.cls-8{stroke:gold;stroke-miterlimit:10;}.cls-1,.cls-8{stroke-width:2.5px;}.cls-2,.cls-3,.cls-8{fill:none;}.cls-2{stroke-width:2px;}.cls-3{stroke-linecap:round;stroke-width:8px;}.cls-4{fill:#cd0000;}.cls-6{clip-path:url(#clip-path);}.cls-7{opacity:0.15;}</style><clipPath id="clip-path"><path id="path49823" class="cls-1" d="M331,103.2,360.55,194H456l-77.25,56.13L408.29,341,331,284.84,253.79,341l29.5-90.82L206,194h95.49Z"/></clipPath></defs><title>Asset 1</title><g id="Layer_2" data-name="Layer 2"><g id="Layer_1-2" data-name="Layer 1"><path d="M69.87,162.2c86.51,25.32,28.4-121.73,114.91-96.42L136.57,8.33C50.06-17,108.17,130.06,21.66,104.75Z"/><path class="cls-2" d="M69.87,162.2c86.51,25.32,28.4-121.73,114.91-96.42L136.57,8.33C50.06-17,108.17,130.06,21.66,104.75Z"/><line class="cls-3" x1="329.4" y1="238.14" x2="132.93" y2="4"/><path d="M592.21,162.2C505.7,187.52,563.81,40.47,477.3,65.78L525.51,8.33C612-17,553.91,130.06,640.42,104.75Z"/><path class="cls-2" d="M592.21,162.2C505.7,187.52,563.81,40.47,477.3,65.78L525.51,8.33C612-17,553.91,130.06,640.42,104.75Z"/><line class="cls-3" x1="332.67" y1="238.14" x2="529.14" y2="4"/><path class="cls-4" d="M60.63,209.41C150.22,219.32,67.45,84.6,157,94.5L99.59,46.29C10,36.39,92.77,171.11,3.17,161.2Z"/><path class="cls-2" d="M60.63,209.41C150.22,219.32,67.45,84.6,157,94.5L99.59,46.29C10,36.39,92.77,171.11,3.17,161.2Z"/><line class="cls-3" x1="329.4" y1="239.13" x2="95.26" y2="42.66"/><path class="cls-4" d="M601.45,209.41C511.86,219.32,594.63,84.6,505,94.5l57.46-48.21c89.59-9.9,6.82,124.82,96.42,114.91Z"/><path class="cls-2" d="M601.45,209.41C511.86,219.32,594.63,84.6,505,94.5l57.46-48.21c89.59-9.9,6.82,124.82,96.42,114.91Z"/><line class="cls-3" x1="332.67" y1="239.13" x2="566.82" y2="42.66"/><path id="path49823-2" data-name="path49823" class="cls-5" d="M331,103.2,360.55,194H456l-77.25,56.13L408.29,341,331,284.84,253.79,341l29.5-90.82L206,194h95.49Z"/><g class="cls-6"><g class="cls-7"><polygon points="301.53 194.02 331.04 234.64 331.04 103.2 301.53 194.02"/><polyline points="331.04 234.64 331.04 284.84 253.78 340.97 331.04 234.64"/><polygon points="331.04 234.64 283.29 250.15 206.04 194.02 331.04 234.64"/><polygon points="456.04 194.02 360.55 194.02 331.04 234.64 456.04 194.02"/><polygon points="408.29 340.97 331.04 234.64 378.79 250.15 408.29 340.97"/></g></g><path id="path49823-3" data-name="path49823" class="cls-8" d="M331,103.2,360.55,194H456l-77.25,56.13L408.29,341,331,284.84,253.79,341l29.5-90.82L206,194h95.49Z"/></g></g></svg>