<svg xmlns="http://www.w3.org/2000/svg" viewBox="0 0 289.09 289.09"><defs><style>.cls-1{fill:#fff;}</style></defs><title>Asset 2</title><g id="Layer_2" data-name="Layer 2"><g id="svg2"><polygon points="250.33 183.3 289.09 144.54 197.44 52.89 144.54 105.79 130.41 91.65 183.31 38.76 144.54 0 52.89 91.65 105.79 144.54 91.65 158.68 38.76 105.79 0 144.54 91.65 236.2 144.54 183.3 158.68 197.44 105.79 250.33 144.54 289.09 236.2 197.44 183.3 144.54 197.44 130.41 250.33 183.3"/><polygon class="cls-1" points="250.33 176.77 282.55 144.54 197.44 59.43 144.54 112.32 123.88 91.65 176.77 38.76 144.54 6.54 59.43 91.65 112.32 144.54 91.65 165.22 38.76 112.32 6.54 144.54 91.65 229.66 144.54 176.77 165.22 197.44 112.32 250.33 144.54 282.55 229.66 197.44 176.77 144.54 197.44 123.88 250.33 176.77"/><path id="rect3103" d="M16.8,144.54l52.89,52.9,19,19,3,3,52.89-52.89,30.94,30.93-52.9,52.89,22,22,52.9-52.89,19-19,3-3-52.89-52.9,30.93-30.93,52.89,52.9,22-22L219.4,91.65l-19-19-3-3-52.9,52.89L113.61,91.65l52.9-52.89-22-22L91.65,69.69l-22,22,52.89,52.89L91.65,175.48l-52.89-52.9-22,22Z"/></g></g></svg>