<svg xmlns="http://www.w3.org/2000/svg" viewBox="0 0 798.27 791.12"><defs><style>.cls-1{fill:#fefd00;}.cls-2{fill:#070103;}.cls-3{fill:#f6f6f6;}</style></defs><title>Asset 1</title><g id="Layer_2" data-name="Layer 2"><g id="Layer_1-2" data-name="Layer 1"><path class="cls-1" d="M24,510.64c-1.4-2.82-4-4.58-6.09-6.81s-4-3.85-3.86-7.39c.13-3.27-4.26-4.38-4.81-8.1-.91-6.2-4.43-11.9-5.56-17.86C3,467,2.17,462.84,2.77,458.81c.46-3.08,1-6.59-1.89-9.34-.63-.59-.65-2.37-.28-3.35,2.29-6-.57-11.91-.14-17.9.48-6.63.08-13.33.08-20,0-6.5-.13-13,.11-19.49.09-2.44-1.5-5.45,1.66-7.23-1.7-2.07.34-4.56-.9-6.85-1.56-2.9-2.34-6.16.42-8.92,1-1,.66-1.39-.05-2.33-2.31-3.08-2.16-6.3.14-9.32.53-.7,1.28-1.5.91-2.14-2.85-4.87.27-9.72.47-14.46.19-4.38,1.75-9.18,3.16-13.72,1.2-3.88,3.85-7.66,3-12.1-.94-5,1.43-8.93,4-12.77a4.4,4.4,0,0,0,.77-2.21A55.87,55.87,0,0,1,22.89,271c1.88-2.93,1.86-7.05,2.28-10.19.91-6.76,4.82-12.53,5.07-19.26.09-2.33,2-4.27,2.95-5.3,5.35-5.7,5.13-13.56,8.61-19.88a74.73,74.73,0,0,1,6-9.06c2.76-3.64,6.31-6.2,5.71-11.66-.32-2.87,3.13-4.43,5-6.32,2.16-2.14,4.13-3.88,4-7.35-.16-3.21,3.61-3.91,5-6.31.67-1.16,2.22-1.73,2.07-3.56-.3-3.47,2-4.71,4.63-6.58,2.93-2.12,4.72-5.92,6.8-9.12,3.09-4.76,4.38-10.53,8.86-14.58,1.66-1.5,4.4-.52,5.29-3.13,1.28-3.76,5-5.13,7.75-7.42A144.84,144.84,0,0,0,122,111.47c3.38-4.09,9.32-6.1,10.39-12.09,9.69-4.44,14.18-15.9,25.11-18.62,1.21-.3,1.35-1.29,2-1.89,5.23-4.56,10.55-9,15.81-13.54,1-.87,2.19-.63,3.32-.62a4.39,4.39,0,0,0,3.83-1.7c5.34-6.31,13.35-8.33,20.24-12.17.65-.36,1.61-.1,2.17-.92,4.71-6.89,13.33-7.76,19.44-12.52.76-.6,2.27-.49,3.38-.33,2.48.37,4.5,0,6.06-2.21a5.18,5.18,0,0,1,5.59-2.28c2.73.57,4.53-1,6.55-2.45,9.56-6.63,22.15-6.21,31.51-13.41a2.55,2.55,0,0,1,1.93-.26c5.72,1.46,10.36-3.77,16-2.55a1.11,1.11,0,0,0,.93-.25c3.77-6.08,9.87-3.85,15.2-4.22,3.73-.25,6.9-2.31,10.35-3.37,2-.62,4.05-.74,6-1.29,10.28-2.89,20.82-1.58,31.22-2.36,4.3-.32,9.44,1,12.51-.47C377.29-.73,382.66.57,388,.38c13.81-.49,27.66-.54,41.46,0,2.53.11,5.88,0,8.46,1.76a2.87,2.87,0,0,0,2.37.38c5.21-2.44,10.33,1.12,15.51.12,6.46-1.25,12.5,1.74,18.67,2.62,8.12,1.15,16.07,3.64,24.42,4.43,4.11.4,8.12,3.21,11.85,5.46,1.22.73,2.25,1.34,3.5,1.18,3.24-.43,6,.52,7.81,3.12,2.08,2.94,5.54,1.33,8.35,3.06,4.95,3.06,10.33,5.85,17,5.66,3.84-.1,7.61,4.17,11.74,5.3,5.34,1.48,9.87,4.87,15.32,5.83,4,.71,6,4.45,9.7,5.84,5.38,2,10.14,5.56,14.43,9.55,1.78,1.65,4.28.39,6.54,1.62,4.08,2.23,7,5.52,10.5,8.38,4.34,3.6,9.87,5.39,14.41,8.87,1.23.93,3.21,1.83,4.21,2.94,2.27,2.51,4.2,4.94,8.06,4.27,1.16-.21,1.55,1,2.29,1.61,2.45,2,3.79,5.61,7.79,5.49.39,0,.86.93,1.2,1.48,5.59,8.94,16,13.11,21.85,21.63,3.77,5.44,10,8.27,13.55,13.59,4.34,6.5,11.32,10.08,16.16,15.94a81.67,81.67,0,0,1,8.07,12.27,19.14,19.14,0,0,0,4.77,5.38c2.57,2,4.29,4.06,4.38,7.61.08,3,3.06,4.78,5.08,6.31,6.12,4.63,9.31,11.17,12.83,17.54.51.93.28,2.28.33,3.43.1,2.25-.58,4.67,3.11,5,2.56.23,2.23,3.56,2.88,5.1,2.37,5.61,7.73,9.82,8.71,15.59,1.3,7.61,8.34,12.34,8.52,20.49.08,3.67,3.26,7.35,5.1,10.9a12.54,12.54,0,0,1,1.48,6.38,14.35,14.35,0,0,0,4.93,11.49c3.2,2.76,2.7,6.85,3.84,10.09,2.6,7.46,3.73,15.58,5.65,23.23,1.8,7.17,1.64,15,5.85,21.84,1.73,2.8,1.75,7.08,2.4,10.61.9,4.89,3.06,9.16,4.18,13.77.38,1.56,1.19,4.69-.52,6.74-1.51,1.81-1.48,4.63-.49,5.55,2.73,2.55,1.81,5.48,1.83,8.27.1,13.16.06,26.33,0,39.49,0,6.3.38,12.65-2,18.7,5.55,3-3.59,8.23,1.66,11.31-3.11,3.38-.92,8-2.44,11.43a21.69,21.69,0,0,0-1.68,9.61,46.66,46.66,0,0,1-3.07,19.56,136.3,136.3,0,0,0-4.79,15.23,19.07,19.07,0,0,1-8.29,11.1c-2.43-.93-1.7-4-3.14-5.15-7.39-5.71-11.63-14.69-20.11-19.22-.79-.42-.82-1.31-1.13-2.06-2.85-6.77-9.32-7.73-15.35-9.11-1.55-.36-2.47-.48-3.41-2-1.56-2.52-4.72-2.18-7.11-2.19S725,468,724.94,469.6c-.14,3.52-1.55,6.72-1.81,10.13-.25,3.15-2.42,4-4.4,2.84-3.2-1.81-6.43-1.36-9.65-1.28-8.82.21-17.48-1-26.2-2.06-9.66-1.17-19.39.41-29.22-2.19-8.59-2.27-17.77.38-26.61,1.85-1.94.32-3.72.13-4.08-2.39s1-3,3.16-3.37a50.87,50.87,0,0,0,19.8-8.22c6.35-4.34,13.64-7.54,18.18-15,3.86-6.32,10.55-10.87,14.68-17.43,3.22-5.12,6.25-10.84,7.77-16.14,1.93-6.77,2.24-14.39,3.54-21.6.24-1.33-1.65-2.21-.06-3.94a8.48,8.48,0,0,0,.82-9.43c-3.7-5.69-1.79-11.56-2.08-17.3-.2-3.86-.57-8.19-2.39-10.9-3.89-5.78-6.07-12.29-9.19-18.33-3.39-6.58-9.55-10.9-12.52-17.59-.25-.56-.85-1.31-1.34-1.35-3.76-.29-5.44-3.34-7.73-5.6-1.18-1.15-2.19-2.72-3.61-3.34-7.52-3.25-14.62-7.42-22.42-10.06-5.3-1.79-10.42-4.22-15.82-5.55-6.55-1.61-13.36-1.71-20.12-1.82.24-1.82,1.59-1.85,3-1.86,2.5,0,5,.05,7.49,0,1.07,0,2.72.47,2.88-1.11.17-1.76-1.54-1.36-2.58-1.38-3.49-.06-7,.1-10.48-.06-2.35-.11-2.73,1.33-3,3.06-3.63-.16-2.49-2.7-2.33-4.71.26-3.21.93-6-1.23-9.42-2-3.14-4.91-4.36-7.33-6.2s-6.66-4.64-9.79-2.4c-4.23,3-8.53,1.36-12.75,2-1.43.21-2.92-.41-4.31.63-6.9,5.16-15.37,6.2-23.21,9-6.14,2.16-12.44,4.5-17.45,8.83-3.33,2.88-7.07,4.86-10.73,7.16-6.27,3.94-11.87,9.32-16.81,14.43-6.2,6.4-11.69,14.18-17.82,20.74-4.14,4.42-7.37,9.7-10.17,14.29-4.33,7.11-10.36,14.4-10,23.84a2.79,2.79,0,0,1-1.15,2c-2.11,1.33-1.59,3.39-1.06,4.93,1.13,3.27.85,6.56.9,9.87.07,4.16-.08,8.34.17,12.49.15,2.67,1.14,3.87,4.64,4,10,.43,14.79-5.94,18.31-13.44a44.52,44.52,0,0,1,10.92-14c3.61-3.25,5.82-7.55,9.14-11s7.05-7,9.84-11.16c1.61-2.41,4.61-1.67,6.93-1s1.69,3,1.72,4.76a21.39,21.39,0,0,1-.67,4.87c-1.26,6-4.65,11.66-4.08,18,.68,7.44-1.44,14.92,1.52,22.43,1.6,4.06-5.09,12.6-10.24,14.67-1.22.49-2.64.48-3,2-.8,3.46-3.42,5-6.36,6.2a34,34,0,0,0-7.74,4.23c-5.59,4.42-12.18,7.83-16.38,13.88a2.83,2.83,0,0,1-2.24,1.51,19.51,19.51,0,0,0-13.21,7c-.92,1.11-1.69,2.23-3.54,2.12-3.9-.24-7,3.53-11.17,2.41-.4-.11-1.37.57-1.52,1.06-1.64,5.28-5.55,9.76-5.33,15.71.15,4.07-3.74,7.32-2.5,11.77.29,1-1.61,1.51-2.32,1.1-4.49-2.64-9.74,2.92-14-1.39-12.19.76-24.47-1.54-36.63,1.21-3,.68-6.25-1.19-6.34-3.92-.19-5.93-3-7.77-8.29-7.47a2.59,2.59,0,0,1-1.87-.51c-5.49-6.81-15.49-6.29-21-13.07-3.29-4-9-5.08-11.19-11.05-1.35-3.77-5.77-6.73-9.35-9.32-2.08-1.5-5.24-.49-8-1.74-4-1.79-7.89-3.67-11.68-5.82-1.54-2,4.93-3,1.16-3.91-3.52-.82-5.83-1.8-7-5.27-1.61,1.68-.77,3.34-1.31,4.7-3.06-1.1-4.47-3.08-4.41-6.52,0-2.62,1.88-4.8,1.82-7-.31-11.05,4.42-21.74,2.24-32.89-.21-1.12.1-2.3-.73-3.32A26.24,26.24,0,0,1,276,360c-.1-2-1.19-4.64,1.18-5.91,2.7-1.45,4.32,1,5.76,2.65,4.8,5.57,9.41,11.27,13.9,17.11,6.12,7.95,15.22,13.19,21,21.79,2.66,4,9.53,4,14.69,1.08,1.1-.61,4.13-10.1,3.14-11.2-4.76-5.34-.68-12.42-4.27-18.59-2.48-4.27-3.45-9.7-7.32-13.51-1.15-1.13-2.4-2-2.59-4-.43-4.41-2.5-7.93-5.72-11.22s-5.34-7.48-7.82-11.37-3.51-9.36-8.11-10.86c-3.8-1.24-5.32-4.05-7.71-6.37-4.45-4.33-9.52-8.12-12.07-14.08-.09-.23-.54-.35-.85-.42-9.16-2.13-14.56-11.24-24-12.86-3.71-.63-5.85-4.3-9.37-5.55-6.36-2.28-13.46-3.6-18.79-7.37s-11.81.93-16.32-3.8c-2.53,2.44-6.27,1.78-8.74,1.54-6.77-.67-10.29,3.28-13.81,7.51-3.14,3.75-1.64,12.58,2.73,14.55,4,1.8,7.51,5,12.43,4.86a4.16,4.16,0,0,1,4.15,4c-.06,2.32-2.59,1.27-4.07,1.47a15.68,15.68,0,0,1-3.49,0c-12.9-1.14-25.76-2.21-38.31,2.61-4.13,1.58-9.5.32-11.94,5.58-.14.3-.88.39-1.35.46-10.1,1.56-16.93,8.76-24.36,14.63A56.67,56.67,0,0,0,109.46,339c-2.65,4.64-5.55,9.06-7.27,14.2-1.93,5.8-1.1,12.47-5.5,17.5-.37.42-.26,1.27-.36,1.93-1,7.19,2.32,14.82-2.17,21.67,3.27,3.39,1.18,7.91,2.42,11.62,2.22,6.61,2.81,13.55,4.81,20.18,1.22,4-2.2,10,5,11.39.1,0,.12.31.22.44,5,6.08,7.77,14.31,16.44,16.84.39.11.57,1.1.77,1.71.92,2.8,3.45,2.35,4.91,1.52,2.07-1.17,1.62-3.45.17-5.15-1.18-1.37-2.63-2.51-3.93-3.78-5.14-5-9.67-13.62-9.79-18.62,1.63,3.09,2.46,7,6,8.45a9.92,9.92,0,0,1,5.34,5.81c1.48,4,6.13,5,7.18,9,.15.59.9,1.44,1.44,1,3.68-3.17,4.77.77,6.06,2.48,4,5.23,10.11,7.1,15.25,10.5,5.74,3.81,12.26,3.87,18.83,3.6,2.13-.09,4.49-.48,5,2.58-4.13,1-8.2-.08-12.31-.26-5.23-.23-10.31.11-13.58-5.06-.21-.33-.82-.45-1.27-.57-7.11-1.93-13.17-5.91-19.13-10-3.25-2.21-4.29,2.05-6.9,2-1,0-.29,2.43.64,2.75,3.9,1.35,4.63,5.54,7.4,7.78,2,1.59,2.36,3.43,1,5.11s-3.36,1.42-4.85-.09-2.27-.89-4.07-.23c-3.84,1.4-7.56,4.2-11.79,3.58-3.92-.57-7.21,1.63-11.21,1.19-4.75-.52-9.68,1-14.6,1.26-5.29.3-10.84-2.35-15.92,1.09A1.23,1.23,0,0,1,72,482c-1.72-2.68-5.83-3.05-6.46-7-.15-1-1.3-2.38-3.79-1.25-4.22,1.91-5.52,6.68-9.88,8.48-1.84.76-6.88-.15-5.43,4.95.06.21-1,1.05-1.53,1.07-4.55.16-6.32,3.15-7.78,6.92-2.71,7-3.52,7.27-8.89,3.88C27.82,503.38,29.32,508.39,24,510.64Z"/><path class="cls-2" d="M290.15,429.75c3.79,2.15,7.69,4,11.68,5.82,2.79,1.25,5.95.24,8,1.74,3.58,2.59,8,5.55,9.35,9.32,2.14,6,7.9,7,11.19,11.05,5.53,6.78,15.53,6.26,21,13.07a2.59,2.59,0,0,0,1.87.51c5.31-.3,8.1,1.54,8.29,7.47.09,2.73,3.34,4.6,6.34,3.92,12.16-2.75,24.44-.45,36.63-1.21,4.26,4.31,9.51-1.25,14,1.39.71.41,2.61-.08,2.32-1.1-1.24-4.45,2.65-7.7,2.5-11.77-.22-5.95,3.69-10.43,5.33-15.71.15-.49,1.12-1.17,1.52-1.06,4.18,1.12,7.27-2.65,11.17-2.41,1.85.11,2.62-1,3.54-2.12a19.51,19.51,0,0,1,13.21-7,2.83,2.83,0,0,0,2.24-1.51c4.2-6.05,10.79-9.46,16.38-13.88A34,34,0,0,1,484.5,422c2.94-1.21,5.56-2.74,6.36-6.2.36-1.54,1.78-1.53,3-2,5.15-2.07,11.84-10.61,10.24-14.67-3-7.51-.84-15-1.52-22.43-.57-6.35,2.82-12,4.08-18a21.39,21.39,0,0,0,.67-4.87c0-1.79.48-4.09-1.72-4.76s-5.32-1.43-6.93,1c-2.79,4.18-6.58,7.79-9.84,11.16s-5.53,7.73-9.14,11a44.52,44.52,0,0,0-10.92,14c-3.52,7.5-8.26,13.87-18.31,13.44-3.5-.16-4.49-1.36-4.64-4-.25-4.15-.1-8.33-.17-12.49-.05-3.31.23-6.6-.9-9.87-.53-1.54-1.05-3.6,1.06-4.93a2.79,2.79,0,0,0,1.15-2c-.33-9.44,5.7-16.73,10-23.84,2.8-4.59,6-9.87,10.17-14.29,6.13-6.56,11.62-14.34,17.82-20.74,4.94-5.11,10.54-10.49,16.81-14.43,3.66-2.3,7.4-4.28,10.73-7.16,5-4.33,11.31-6.67,17.45-8.83,7.84-2.75,16.31-3.79,23.21-9,1.39-1,2.88-.42,4.31-.63,4.22-.6,8.52,1.08,12.75-2,3.13-2.24,7.22.44,9.79,2.4s5.36,3.06,7.33,6.2c2.16,3.45,1.49,6.21,1.23,9.42-.16,2-1.3,4.55,2.33,4.71.21,1.84,1.35,1.84,2.71,1.38,6.76.11,13.57.21,20.12,1.82,5.4,1.33,10.52,3.76,15.82,5.55,7.8,2.64,14.9,6.81,22.42,10.06,1.42.62,2.43,2.19,3.61,3.34,2.29,2.26,4,5.31,7.73,5.6.49,0,1.09.79,1.34,1.35,3,6.69,9.13,11,12.52,17.59,3.12,6,5.3,12.55,9.19,18.33,1.82,2.71,2.19,7,2.39,10.9.29,5.74-1.62,11.61,2.08,17.3a8.48,8.48,0,0,1-.82,9.43c-1.59,1.73.3,2.61.06,3.94-1.3,7.21-1.61,14.83-3.54,21.6-1.52,5.3-4.55,11-7.77,16.14-4.13,6.56-10.82,11.11-14.68,17.43-4.54,7.44-11.83,10.64-18.18,15a50.87,50.87,0,0,1-19.8,8.22c-2.13.37-3.5.93-3.16,3.37s2.14,2.71,4.08,2.39c8.84-1.47,18-4.12,26.61-1.85,9.83,2.6,19.56,1,29.22,2.19,8.72,1.06,17.38,2.27,26.2,2.06,3.22-.08,6.45-.53,9.65,1.28,2,1.13,4.15.31,4.4-2.84.26-3.41,1.67-6.61,1.81-10.13.06-1.57-.12-4.77,2.41-4.75s5.55-.33,7.11,2.19c.94,1.52,1.86,1.64,3.41,2,6,1.38,12.5,2.34,15.35,9.11.31.75.34,1.64,1.13,2.06,8.48,4.53,12.72,13.51,20.11,19.22,1.44,1.11.71,4.22,3.14,5.15.66,7.79,2,15.41,7.22,21.6a6.31,6.31,0,0,1,1.78,4.31c.07,5.19.06,10.39.47,15.55.13,1.57,1.42,3.23,2.23,4.6,2.66,4.51,2.76,8.55.3,13.1-1.05,1.93,1.89,3.26,1.77,5.68-.19,3.77-.93,7.6,1.66,11.41,1.65,2.43-2.42,4.81-2.88,7.68-.09.56-1.32,1.14-1.11,2,1.41,5.91-3.17,10.86-2.67,16.54.43,4.8-3.09,8.39-5.39,10.84-5.2,5.53-9.08,12.43-15.13,16.86-4.28,3.14-6.7,8.08-11.54,10.43-.76.37-1.49.93-2.25.75-5-1.2-8,1.91-10.77,5.14-2.18,2.54-4.62,4.34-8,3.93a9.58,9.58,0,0,0-7.47,2.89c-5.25,6-13.58,4.14-19.3,8.5-1,.73-2.93.22-4.42.13a5.06,5.06,0,0,0-5.32,2.89,44,44,0,0,1-16-2.64c-2.37-.87-6-2.16-6.35-3.84-.7-3.22-2.28-3-4.49-3-1.48,0-3.12.17-4.42-.37-8.11-3.37-14.31-9.76-21.93-14-7.22-4-12.4-10.85-18.71-16.18a10.66,10.66,0,0,1-3.87-5.53c-1-3.85-1.7-8.71-8.33-7.94,2.79-3.76,1.62-6.94-1.43-8.17-2.69-1.09-6.39-2.42-9.17.19-5.86,5.51-11.36,11.4-17.3,16.81-1.57,1.44-.21,3.73-2.71,4.87-4.91,2.24-9.84,4.91-13.25,9.18-2.68,3.36-6.4,5.61-9.44,8.22-7.48,6.41-17,10.24-25,16.29-2.24,1.7-4.5,4.78-7.58,4.86-5.66.17-8.95,6.94-15.18,5.11-.26-.08-1,.83-1.21,1.39-1.31,3.85-4.79,5-8,5.15-6.48.39-11.65,4.1-17.44,6.12-6.4,2.24-12,7-19.4,5.51-4.3-.84-7.87,1.71-11.61,2.75-5.79,1.62-11.3,4.21-17.48,4.1-2.84,0-5.79.31-8.49.5-3.18.22-6.09,1.19-9.23-.36a2.38,2.38,0,0,0-2.69.91c-1.12,1.47-2.69,1.1-4.14,1.09-12.05,0-24.14.59-36.11-1.12a125.8,125.8,0,0,0-17.87-1c-5.21,0-9.86-3.61-15.28-2.33-.24.06-.63-.19-.86-.39a15.83,15.83,0,0,0-13.37-4.07c-5,.71-8.95-1.56-13-3.85A62,62,0,0,0,296,680.12c-3.05-.55-5.48-1-7.49-3.48-2.63-3.2-6.31-5.78-10.15-5.83-4.38,0-7.1-1.9-9.71-4.67a7.24,7.24,0,0,0-4.58-2.44c-3.4-.51-7.62-1.24-9.75-3.11-5-4.4-11.12-7.23-16-11.34-5.25-4.47-11.7-7.57-16-13.19-1.19-1.55-2.46-3.54-4.12-4.14-5.31-1.93-7.89-6.06-10.73-10.51-2.48-3.87-7.16-5.8-11.2-7.9-1.93-1-4.52-.37-6.57,1.91-2.86,3.18-5.94,5.76-6.53,10.55-.27,2.22-1.05,5.54-3.92,6.48-4.7,1.53-5.81,6.37-9,9.27-1.74,1.58-4.08,3.13-4.93,5.23-1.07,2.63-.78,6-4.54,2-.77-.81-1.17.14-1.77.75-4.87,4.9-12.77,5.67-16.58,12.08-.12.2-.61.24-.93.25-8,.39-12.84,6.69-19.17,10.2-2.72,1.51-5.65,5.27-8.62,3.05s-5.38-1.45-8.18-1c-2.22.23-2.94-1.84-4.38-2.81-5.13-3.43-9.79-8-16.77-7.14-3.37.41-6-1-8.21-3.5a15.93,15.93,0,0,0-12.31-5.78c-2.68,0-5.17-.07-6.49-3.74-.88-2.47-4.1-4.06-6.15-6.16-.74-.76-1-1.33-2.28-.66-3.1,1.55-5.54-.36-6.86-2.76-1.79-3.25-3.76-6-7.42-7.1-2.85-.89-3.89-5.11-3.87-5.78.23-7.27-6.09-11.13-8.23-17-.4-1.09-1.54-1.68,0-2.67a1.8,1.8,0,0,0,.79-2.19c-3.4-5.8-1.19-14.08-8-18.31-1.55-1-1.21-2.37-1-3.52.87-5.22-2.23-10.9,1.82-15.73-3.79-5.5,2.59-9.4,2.29-13.84C18,549.9,20.23,545.1,21,539.86c.87-5.69.42-11.6.33-17.42-.06-4.18,3.25-7.54,2.66-11.8,5.31-2.25,3.81-7.26,4.21-11.59,5.37,3.39,6.18,3.12,8.89-3.88,1.46-3.77,3.23-6.76,7.78-6.92.55,0,1.59-.86,1.53-1.07C45,482.08,50,483,51.85,482.23c4.36-1.8,5.66-6.57,9.88-8.48,2.49-1.13,3.64.28,3.79,1.25.63,3.92,4.74,4.29,6.46,7a1.23,1.23,0,0,0,1.71.53c5.08-3.44,10.63-.79,15.92-1.09,4.92-.28,9.85-1.78,14.6-1.26,4,.44,7.29-1.76,11.21-1.19,4.23.62,8-2.18,11.79-3.58,1.8-.66,2.63-1.24,4.07.23s3.6,1.64,4.85.09,1-3.52-1-5.11c-2.77-2.24-3.5-6.43-7.4-7.78-.93-.32-1.62-2.76-.64-2.75,2.61,0,3.65-4.24,6.9-2,6,4.07,12,8.05,19.13,10,.45.12,1.06.24,1.27.57,3.27,5.17,8.35,4.83,13.58,5.06,4.11.18,8.18,1.23,12.31.26,6.15.07,12.31,0,18.45.28,3.9.2,7.56-.36,10.55-2.76,2.26-1.82,4.67-2.09,7.32-2.37,8.8-1,16.24-5.42,22.19-11.31,5-4.93,11.94-8.35,14.11-15.87,1.47-5.08,8-6.65,8.89-11.84a58.75,58.75,0,0,1,3.55-12.93c3-7.15,1.4-14.63,3.25-21.72-.5-4.24,1.53-8.7-1.13-12.75a8.42,8.42,0,0,1-.18-1c-.47-11.14-3.14-21.25-13-28.07a3.22,3.22,0,0,1-.86-1.67c-1.4-4.73-4.51-8.33-8.08-11.43-5.25-4.55-10.8-8.77-16.24-13.1a4.49,4.49,0,0,0-3.68-1.25c-5.29,1.18-9.65-2.38-14.72-3-6.37-.77-12-5.32-19.2-4.74-4.83.38-10.07-.28-14.5,1.16-5.29,1.72-10,4.71-15.94,3.18a3.13,3.13,0,0,0-3.42,1.52c-.77,1.08-1.44,2.4-3,2.33-3.79-.18-6.52,1.85-9.11,4.21-2.39,2.18-4.31,4.77-7.51,6.18-1.57.69-3.67.33-4.92,2.64-2.53,4.67-6.44,8.36-10.2,12.16-2.89,2.92-6.88,5.53-7.41,9.94-.44,3.67-2.33,6.72-3.53,9.92-1.69,4.54-2.24,9.3-3.75,13.85-1,3-.14,6.59-.12,9.91-2.31,1.92-3,3.85,0,5.77,0,1.82.1,3.64.14,5.46.32,2.76-3.2,6.68,2.38,7.85-1.2,6.11,2.33,10.86,4.56,16,.12,5,4.65,13.63,9.79,18.62,1.3,1.27,2.75,2.41,3.93,3.78,1.45,1.7,1.9,4-.17,5.15-1.46.83-4,1.28-4.91-1.52-.2-.61-.38-1.6-.77-1.71C114.37,452.26,111.59,444,106.6,438c-.1-.13-.12-.42-.22-.44-7.19-1.41-3.77-7.37-5-11.39-2-6.63-2.59-13.57-4.81-20.18-1.24-3.71.85-8.23-2.42-11.62,4.49-6.85,1.12-14.48,2.17-21.67.1-.66,0-1.51.36-1.93,4.4-5,3.57-11.7,5.5-17.5,1.72-5.14,4.62-9.56,7.27-14.2a56.67,56.67,0,0,1,14.46-16.27c7.43-5.87,14.26-13.07,24.36-14.63.47-.07,1.21-.16,1.35-.46,2.44-5.26,7.81-4,11.94-5.58,12.55-4.82,25.41-3.75,38.31-2.61a15.68,15.68,0,0,0,3.49,0c1.48-.2,4,.85,4.07-1.47a4.16,4.16,0,0,0-4.15-4c-4.92.15-8.42-3.06-12.43-4.86-4.37-2-5.87-10.8-2.73-14.55,3.52-4.23,7-8.18,13.81-7.51,2.47.24,6.21.9,8.74-1.54,4.51,4.73,10.94,0,16.32,3.8s12.43,5.09,18.79,7.37c3.52,1.25,5.66,4.92,9.37,5.55,9.48,1.62,14.88,10.73,24,12.86.31.07.76.19.85.42,2.55,6,7.62,9.75,12.07,14.08,2.39,2.32,3.91,5.13,7.71,6.37,4.6,1.5,5.64,7,8.11,10.86s4.66,8.12,7.82,11.37,5.29,6.81,5.72,11.22c.19,2,1.44,2.86,2.59,4,3.87,3.81,4.84,9.24,7.32,13.51,3.59,6.17-.49,13.25,4.27,18.59,1,1.1-2,10.59-3.14,11.2-5.16,2.88-12,2.91-14.69-1.08-5.75-8.6-14.85-13.84-21-21.79-4.49-5.84-9.1-11.54-13.9-17.11-1.44-1.68-3.06-4.1-5.76-2.65-2.37,1.27-1.28,3.9-1.18,5.91a26.24,26.24,0,0,0,5.87,15.53c.83,1,.52,2.2.73,3.32,2.18,11.15-2.55,21.84-2.24,32.89.06,2.2-1.78,4.38-1.82,7-.06,3.44,1.35,5.42,4.41,6.52C284.64,427.92,286.24,430.69,290.15,429.75Zm92.2,144.36.28,0c1,1.46,2.1,0,3.15.12a130,130,0,0,0,41-1c8.34-1.52,17,0,25.58-2.36,4.6-1.27,9.89-.25,14.84-1,3.17-.59,7.05,2.54,9.51-1.8,4.59-.32,9.29,1.13,13.77-.85,8.11,1.7,15.79-1.19,23.38-2.95,3.05-.71,5.93-2,9.23-1.79,1.3.08,0-.85.23-1.27,2.63-3,6.46-1.45,9.53-2.53,5.08-1.79,11.25,1,15.54-3.8,4.42,1.68,7.66-1.44,11.34-2.78,1.14-.58,2.23-1.5,3.44-1.69,9.64-1.53,18.67-5.27,28.07-7.68,3.5-.9,8.53-8,6.71-10.3-2.94-3.69-1.51-7.56-1.87-11.35-.38-4,1.73-5.63,5.7-5.63,6.59,0,13.18-.23,19.77-.52,1.84-.08,1.74,1.14,1.77,2.1.09,4.33,1.1,9-.22,12.9-1.47,4.32,6.17,7.19,1,11.4-.64.52.63,1.21,1.45,1.35,3.31.58,3.12,2.09,1.43,4.43-1.46,2-2.6,4.33,1.52,4.8,1.71.2,2.06.9.64,2.12-.91.79-1.19,2.11.13,2.21,4.3.36,3.53,3.51,3.16,5.86-1.46,9.13,2,17.71,2.89,26.57.24,2.39.82,6.71,5.5,7.34a4.54,4.54,0,0,1,3.37,4.85c-.11,1.41.91,3,1,4,.41,4.42,6.76,4,6.45,8.55,4.2.09,4.21,3.07,4.33,6.09a1.83,1.83,0,0,0,1.34,1.16c5.35-.71,6.53,4.93,10.3,6.79,3.47,1.7,6.34,4.62,10.54,4.74,1.22,0,2.63.17,2.65,1.63,0,3.3,2.25,3.4,4.44,3,8-1.37,15.31,3.63,23.28,2.36a4.75,4.75,0,0,1,1.43.3c4.16.73,8.17.76,11.12-2.94.63-.79,1.13-1.9,2.17-1.68,6.53,1.42,12.1-3.52,18.51-2.69,2.9.37,4.06-1,3.57-3.75-.93-5.09,2.7-7.54,6.09-9.54a12.56,12.56,0,0,0,3.39-3.21c2.92-3.36,1-9.07,5.85-11.2a1.51,1.51,0,0,0,.41-1.22c-3.37-2.93.27-4.06,1.57-5.4a19.51,19.51,0,0,0,5.85-13.74c.18-5.06-2.2-10.59,1.89-15.25a2.35,2.35,0,0,0-.13-2.33c-3-2.3-2.1-5.55-1.8-8.31.61-5.66-1.39-10.81-2.35-16.17-.17-1-.65-1.58-1.57-1.57-3.73,0-2.9-2.64-3.16-4.88-.51-4.45-.61-9.36-7.19-9.12-.55,0-1.54-.46-1.6-.83-.69-4-5.47-7.91-.37-12-4.44-3-4.32,1.56-5.42,3-3.78-.76-2.67-5.09-5.42-6.08-5-1.81-7.34-6.59-11.16-9.71-1.45-1.18.14-1.46.7-2.09a3.25,3.25,0,0,0,.32-3.74c-.51-1.05-1.7-1-2.66-.62a2.75,2.75,0,0,0-1.82,3.2c1.21,3.91-1.08,7.19-1.43,10.76-.41,4.19-2.58,5.35-6.16,5.51-2.69.12-6-1.41-7.77-.6-5.89,2.63-12.13,2.1-17.45.83-8.81-2.11-17.7-1.42-26.48-2.77-7.65-1.17-15.64,0-23.45-.32-4.08-.19-8.55-.3-12.18-1.55-6.31-2.18-12.49-4-19.17-3.94-4.17,0-8.35.22-12.5-.06-3.36-.24-7.48,1.84-9.78-2.59-3.23,3.55-6.6-.24-9.84.2-6.84.94-13-1.58-19.39-3.22-4.2-1.09-12.59,6.39-10.41,9.86s-.82,4.36-1.7,4.65c-3,1-5.78,2.65-9.32,2.58-4.65-.1-8.7-2.48-13.44-2.36-3.38.09-4.42-3.55-2.41-6.75.7-1.11.42-2.24.73-3.31,1.14-3.92,1.62-8.38,3.23-11.71,2.59-5.36,2.75-10.8,3.74-16.25,1.05-5.81-2.23-12.12,2-17.59.52-.66-.53-1-.92-1.49-4.29-5.14-6.79-11.42-11.46-16.5-2.74-3-4.73-7-8-9.94-1.85-1.67-3.28-1.68-5,.13s-3.56,4.68-5.78,5.21c-7.75,1.83-13,7-18.43,12.13-2.06,1.94-3.69,4-6.88,5-2.26.68-7.28,1.45-5.74,6.69.4,1.39-1.18,1.6-2.37,1.88-4.69,1.1-7.84,5.08-10.41,8.21-1.9,2.31-3,3.51-5.72,3.45a2.5,2.5,0,0,0-1.68.78c-2.87,3.18-6.58,4.79-10.51,6.22-1.71.62-3.24,3.4-5.07,1.47-3.2-3.38-4.6.72-5,1.6A93.05,93.05,0,0,0,423,511.56c-.8-.09-1.38,0-1,1.06l-1.23,1.29q-38.17-.1-76.35-.22c-1.65,0-3.48.2-4.92-.41-8.69-3.67-17.57-1.76-26.4-1.12l-18.41-1.33c-.33-.37-.8-1.13-.95-1.07-3.85,1.5-7.11-5.21-11.17-.82-.11.12-.94-.21-1.27-.51-4.15-3.81-9-1.6-13.54-1.54-1.22-2.11-3.28-1.19-5-1.21-12.12-.13-24.36,1.09-35.95-4.09-1.68-.75-4.53-1.13-5.74-.22-2.8,2.1-8.85-.06-8.58,5.94.51,11.17-.88,22.25-1.07,33.39-.08,4.7,1.9,6.71,6.33,6.95,2.23.12,4.73-.56,6.23,1.94,4.13,2.34,8.43,1.26,12.71.64.11.31.15.84.34.91,6.18,2.1,12,5.36,18.7,5.85,1.8.13,4.27-.27,5.27.73,3.22,3.25,7.28,2.44,11,3.16,2.38,3.14,5.73.92,8.56,1.54,3.39,2.77,8.11,2.59,11.69,3.14,8.89,1.37,17.85,4,27.09,2.71a13.33,13.33,0,0,1,8.46,1.76,24.32,24.32,0,0,0,9,1.76c7.7-.25,15,3.56,22.8,2.29a2.34,2.34,0,0,1,1.76.72c3.92,4.11,7.86-1.86,11.75.07l.42-1.9,3.31.15c.94,3,2.66,3.75,5.33,2,.1-.1.27-.2.26-.3A3.14,3.14,0,0,0,382.35,574.11Zm182-111.6c-.15,1.42,1.18,1.29,1.89,1.82,3.32,2.49,7.65.78,11,2.59,3.91,2.09,8.48,1.61,12.41,3.67a3.07,3.07,0,0,0,4.17-1.62h2c2.88,2.67,6.11,1.92,9.13.56a36.31,36.31,0,0,1,12.26-2.83c6-.47,12.52-.3,16.32-6.53L646.21,453c7.94-3.64,13.45-10,18.4-16.87,1.18-1.64,3.3-3.5,2.4-6.2,1.26-3.49,2.3-7.08,4.66-10.06,2.68-.15,3.7-1.91,3.68-4.24,0-5.57,3-10.34,3.9-15.66,1-5.87,1.66-11.7-.31-17.51-.73-3.24,1.53-6.89-.51-9.77-4.6-6.47-3.44-15.7-10.24-21-2.69-2.1-2.1-5.83-4.21-8-7.49-7.75-13.35-17.25-24.07-21.56-5.89-2.37-11.58-5.1-17.71-7-3.36-1.06-6.89,1.59-9.6-1.21-4.11-4.24-9.93-3-14.37-3-6.47.05-13,2.3-19.72,1-1.21-.23-2.76-.48-3.69.84-1.68,2.41-4.25,2.31-6.65,2.22s-4,.4-5.23,2.58a6.71,6.71,0,0,1-7.38,3.48c-.94-.15-2.65-.13-2.84.31-2.4,5.57-8.26,7.26-12.48,10.47-3.58,2.71-3.67,7.06-7.13,9.51a33,33,0,0,0-10.85,12.85c-1.09,2.26-.56,4.45-1.57,6.52-4.69,9.61-6.16,19.81-5.73,30.46.13,3.49,2.66,7.34,1.95,9.41-1.43,4.21.71,6.88,1.63,10.13,1.35,4.79,2.1,9.91,4.33,14.25,4.39,8.55,11.71,15,17.85,22.25,5.44,6.44,13.17,10.11,20.2,14.56v.16l.2-.13Zm-395.71,137c3.53-1.91,7.17-3,2.3-7.26a2.14,2.14,0,0,1,.68-3.41A2.43,2.43,0,0,0,173,586c-1.16-4.33,2.89-7.54,2.35-11.71a1.23,1.23,0,0,1,1.1-1.4c5.5-1.14,4-2.06-.09-2.9-.79-.16-1-.78-1-1.47-.76-7-.77-14.63,3-20.31,4-5.95,6.41-11.76,5.94-18.62-.15-2.22,3.22-2.81,1.58-5.09-4.49-6.24,1.67-13.18-1.3-19.52,3.39-1.95-1-5.83,2-8,.41-.31.06-2-.73-2.09-3-.21-4.63-3.13-8.08-2.93-27.4,1.55-55-2.67-82.28,2.55-7.68-2.54-12.16,3.28-15.89,7.67-2.33,2.74-1.53,8.18-7,8.94-.12,0-.33.74-.22.85,2.75,2.72-.56,2.19-1.38,3.4-2.87,4.23-7.76,4.78-11.53,5.94-3.49,1.08-3.12,4.59-5.33,5.11-4.2,1-5,5-4.88,7.24.21,7.07-3.18,12.89-5.3,19.11-.69,2-1.57,3.12,0,5.16a4,4,0,0,1-.33,4.68c-1.11,1.14-2.79.86-4-.32-.74-.72-1.45-.89-2,0a2.21,2.21,0,0,0,.24,2.77c1.91,1.78,1.19,3.24.68,5.55s-1.92,5.52-1,7c3.47,5.34,1.14,11,1.89,16.4a19,19,0,0,0,.88,3.71c2.23,6.4,10.23,9.88,9,17.93,4.1,2.86,5.45,8,9,11.16,4.89,4.37,12.2,5,16.89,9.94a1.25,1.25,0,0,0,1,.15c3-.66,4.6,1.65,6.82,2.9,4,2.22,7.84,7.09,13.22,1.87.94-.91,3.37.11,5.14.45,3.49.67,7.21,0,10.63,1.56.18.08.71-.22.82-.45,1.12-2.44,3.38-1.44,5.21-1.87,4.7-1.11,9.25-2.74,14.26-2.44,1.16.07,2.85-1.71,3.62-3,2.84-4.88,7.8-7.25,13.1-6,1.19.27,3.42.48,3.05-1.32-1.1-5.51,5.15-7.29,5.72-11.94.07-.62,1.79-2.19,3.56-2.84,3.48-1.28,6.62-7,6.17-7.88-2.43-4.89,1.45-2.87,2.95-3.28.8-.22,1.88-.2,2-1.09.24-1.42-1-1.37-2-1.53C169.84,599.9,169.22,599.7,168.6,599.55ZM327.19,489c-2.08-2.49-3.71-3.81-6.79-4.15-2.85-.32-5.47-1.87-7.73-5-2.79-3.91-5.51-8.28-9.9-11.41-2.8-2-6.64-3.19-8.66-7.43a20.06,20.06,0,0,0-7.61-8.77c-5.15-3-11.91-2.85-15.85-8.28-2.41-3.32-4.91-3.44-6.18,1.34-.51,1.93-2.14,3.37-3.85,4.45a16.89,16.89,0,0,0-6.35,6.41c-2.09,4.36-5.84,6.51-9.34,9.25-2.4,1.88-5.85,2.6-7.45,4.83-2.8,3.91,2.28,18.24,6.78,20.11a20.71,20.71,0,0,0,9,1.78c8.77-.46,17.55-.94,26.32-1.06C295.21,490.83,310.87,491.53,327.19,489Zm270-5.39v.08c1.82,0,3.64,0,5.46,0,1.36,0,2.82-.17,2.74-2-.07-1.51-1.33-1.69-2.52-1.75a21.94,21.94,0,0,1-4.68-1.08c-3.05-.83-6.11,1-8.93,2-1.54.54-.37,2.65,1.49,2.8C592.9,483.78,595.06,483.64,597.2,483.64Zm-33.58-7c1.45-.13,3.11-.1,2.86-2-.2-1.53-.46-3.33-2.87-3.33s-2.84,2-3.05,3.26C560.22,476.71,562.5,476.18,563.62,476.66Z"/><path class="cls-1" d="M105.55,674.33c2.8-.46,5.17-1.27,8.18,1s5.9-1.54,8.62-3.05c6.33-3.51,11.16-9.81,19.17-10.2.32,0,.81-.05.93-.25,3.81-6.41,11.71-7.18,16.58-12.08.6-.61,1-1.56,1.77-.75,3.76,3.94,3.47.59,4.54-2,.85-2.1,3.19-3.65,4.93-5.23,3.21-2.9,4.32-7.74,9-9.27,2.87-.94,3.65-4.26,3.92-6.48.59-4.79,3.67-7.37,6.53-10.55,2-2.28,4.64-2.91,6.57-1.91,4,2.1,8.72,4,11.2,7.9,2.84,4.45,5.42,8.58,10.73,10.51,1.66.6,2.93,2.59,4.12,4.14,4.29,5.62,10.74,8.72,16,13.19,4.83,4.11,10.92,6.94,16,11.34,2.13,1.87,6.35,2.6,9.75,3.11a7.24,7.24,0,0,1,4.58,2.44c2.61,2.77,5.33,4.62,9.71,4.67,3.84.05,7.52,2.63,10.15,5.83,2,2.44,4.44,2.93,7.49,3.48a62,62,0,0,1,19.49,7.52c4,2.29,8,4.56,13,3.85a15.83,15.83,0,0,1,13.37,4.07c.23.2.62.45.86.39,5.42-1.28,10.07,2.33,15.28,2.33a125.8,125.8,0,0,1,17.87,1c12,1.71,24.06,1.07,36.11,1.12,1.45,0,3,.38,4.14-1.09a2.38,2.38,0,0,1,2.69-.91c3.14,1.55,6.05.58,9.23.36,2.7-.19,5.65-.55,8.49-.5,6.18.11,11.69-2.48,17.48-4.1,3.74-1,7.31-3.59,11.61-2.75,7.39,1.45,13-3.27,19.4-5.51,5.79-2,11-5.73,17.44-6.12,3.19-.19,6.67-1.3,8-5.15.19-.56.95-1.47,1.21-1.39,6.23,1.83,9.52-4.94,15.18-5.11,3.08-.08,5.34-3.16,7.58-4.86,8-6,17.51-9.88,25-16.29,3-2.61,6.76-4.86,9.44-8.22,3.41-4.27,8.34-6.94,13.25-9.18,2.5-1.14,1.14-3.43,2.71-4.87,5.94-5.41,11.44-11.3,17.3-16.81,2.78-2.61,6.48-1.28,9.17-.19,3,1.23,4.22,4.41,1.43,8.17,6.63-.77,7.32,4.09,8.33,7.94a10.66,10.66,0,0,0,3.87,5.53c6.31,5.33,11.49,12.15,18.71,16.18,7.62,4.25,13.82,10.64,21.93,14,1.3.54,2.94.36,4.42.37,2.21,0,3.79-.18,4.49,3,.37,1.68,4,3,6.35,3.84a44,44,0,0,0,16,2.64c-.77,7.28-6.48,9.36-12.15,11.34a5.13,5.13,0,0,0-2.44,2.3c-2.7,3.74-7,6.34-9.31,9.68-2.69,3.94-7.18,5-9.5,8.72-.66,1.07-1.62,2.2-3.22,2-3.35-.44-5,.78-4.57,4.39.21,1.62-.67,2.31-2.29,2.58-2.41.41-3.45,2.73-5.13,4.16-1,.85-2.19,2.56-3,2.4-5.76-1.18-7.45,3.25-10.66,6.41-4.2,4.12-10.12,6.44-14.64,10.3-4.3,3.66-8,7.78-13.8,9.33-1.76.47-3.15,2.66-4.49,4.24s-2.75,2.73-5,2.4a2.83,2.83,0,0,0-2.78.72c-3.7,4.42-9.18,4.57-14.13,6a17.65,17.65,0,0,0-6.26,3.11c-4.67,4.26-10.65,5.76-15.66,9-3.13,2-6.83,1.2-9.88,3.56-1.45,1.14-5.66,2.64-6,2.44-4.3-2.53-6.48,1.49-9.1,2.9-3.07,1.66-6.61,2.78-9.19,4.75-3.95,3-8.64,2.47-12.7,3.55-9.47,2.51-19.59,2.43-29.45,3.29-47.89,4.19-95.83.67-143.72,2-14.73-3.85-29.76-1.65-44.65-2.28-3-.13-5.58-2-8.43-2.91a90.2,90.2,0,0,1-22.22-10.18,5.91,5.91,0,0,0-4.28-.65c-5.29.72-9.16-2.14-13-4.93-3.32-2.38-6.62-4.2-11-4.37-4.85-.19-8.44-4-12.83-5.73-3.75-1.46-7.08-3.94-10.75-5.66a53.25,53.25,0,0,1-11.44-7.37,16.28,16.28,0,0,0-7.93-3.94c-7-.89-11.62-5.8-16.55-9.67-2.46-1.93-3.63-4.72-7.6-4.79-1.66,0-3.64-2.61-3.23-5.41.33-2.22-.56-3.5-3.05-3.3-5.49.44-9.37-2.51-13.18-6-1.56-1.42-2.78-3.37-5.48-3.74a4.51,4.51,0,0,1-3.75-3.95c-.14-2.79-2.8-3.31-4.11-4.94-3.64-4.56-10.62-5.73-12.24-12.41-.29-1.17-1.71-5-4.81-2a1.69,1.69,0,0,1-1.28-.1C114.71,680.65,108.44,678.9,105.55,674.33Z"/><path class="cls-3" d="M115.17,430.47c-2.23-5.13-5.76-9.88-4.56-16-.39-2.74,2.47-6.46-2.38-7.85,0-1.82-.09-3.64-.14-5.46.67-1.92.14-3.84,0-5.77,0-3.32-.87-6.92.12-9.91,1.51-4.55,2.06-9.31,3.75-13.85,1.2-3.2,3.09-6.25,3.53-9.92.53-4.41,4.52-7,7.41-9.94,3.76-3.8,7.67-7.49,10.2-12.16,1.25-2.31,3.35-1.95,4.92-2.64,3.2-1.41,5.12-4,7.51-6.18,2.59-2.36,5.32-4.39,9.11-4.21,1.56.07,2.23-1.25,3-2.33a3.13,3.13,0,0,1,3.42-1.52c5.9,1.53,10.65-1.46,15.94-3.18,4.43-1.44,9.67-.78,14.5-1.16,7.19-.58,12.83,4,19.2,4.74,5.07.61,9.43,4.17,14.72,3a4.49,4.49,0,0,1,3.68,1.25c5.44,4.33,11,8.55,16.24,13.1,3.57,3.1,6.68,6.7,8.08,11.43a3.22,3.22,0,0,0,.86,1.67c9.84,6.82,12.51,16.93,13,28.07a7.89,7.89,0,0,0,.18,1c.27,4.26-1.88,8.74,1.13,12.76-1.85,7.09-.24,14.57-3.25,21.72A58.75,58.75,0,0,0,261.78,430c-.85,5.19-7.42,6.76-8.89,11.84-2.17,7.52-9.15,10.94-14.11,15.87-5.95,5.89-13.39,10.35-22.19,11.31-2.65.28-5.06.55-7.32,2.37-3,2.4-6.65,3-10.55,2.76-6.14-.32-12.3-.21-18.45-.28-.55-3.06-2.91-2.67-5-2.58-6.57.27-13.09.21-18.83-3.6-5.14-3.4-11.28-5.27-15.25-10.5-1.29-1.71-2.38-5.65-6.06-2.48-.54.48-1.29-.37-1.44-1-1.05-4-5.7-5-7.18-9a9.92,9.92,0,0,0-5.34-5.81C117.63,437.49,116.8,433.56,115.17,430.47Zm41.25-44.18c0,13.7,2.27,22,9.89,29,4.38,4,9.22,6.69,14.46,7.39,3.89.52,7.63,3.56,11.39,2.09,7.32-2.86,14.06-7.1,19.09-13.17,2.14-2.59,4.48-5.52,5.23-9.18,1.24-6,2.4-11.34.48-18-2.73-9.49-8.68-15-16-20.06-1.2-.84-3.66,0-4.69-.91-4.82-4.21-9.79-5.19-16-3.23-6,1.89-9.74,6.64-14.65,9.84C158.6,374.58,156.24,382.1,156.42,386.29Z"/><path class="cls-3" d="M593.64,289.55c-1.36.46-2.5.46-2.71-1.38.26-1.73.64-3.17,3-3.06,3.49.16,7,0,10.48.06,1,0,2.75-.38,2.58,1.38-.16,1.58-1.81,1.08-2.88,1.11-2.5.08-5,0-7.49,0C595.23,287.7,593.88,287.73,593.64,289.55Z"/><path class="cls-3" d="M290.15,429.75c-3.91.94-5.51-1.83-7.18-4.48.54-1.36-.3-3,1.31-4.7,1.2,3.47,3.51,4.45,7,5.27C295.08,426.72,288.61,427.76,290.15,429.75Z"/><path class="cls-3" d="M272,560.88c-3.74-.72-7.8.09-11-3.16-1-1-3.47-.6-5.27-.73-6.69-.49-12.52-3.75-18.7-5.85-.19-.07-.23-.6-.33-.9-4.16-1.69-8.48-.41-12.72-.65-1.5-2.5-4-1.82-6.23-1.94-4.43-.24-6.41-2.25-6.33-6.95.19-11.14,1.58-22.22,1.07-33.39-.27-6,5.78-3.84,8.58-5.94,1.21-.91,4.06-.53,5.74.22,11.59,5.18,23.83,4,35.95,4.09,1.68,0,3.74-.9,5,1.21l15.59,3.74,1.7-.12c1.79.27,3.74-.36,5.36.91a3.59,3.59,0,0,0,.49.79c1.76.9,3.21,1,3.79-1.38l18.39,1.33c3.47,1.52,7.31-.32,10.72,1,2.93,1.14,5.6,1.38,8.46,0,1.21-.58,2.71-.77,3.72.34,1.58,1.75,3.55,1.52,5.53,1.52q37.45,0,74.9-.06c1.44,0,3.34,1.06,4.36-1l1.22-1.29c.83.12,1.18-.22,1-1.06a93.05,93.05,0,0,1,7.64-27.65c.42-.88,1.82-5,5-1.6,1.83,1.93,3.36-.85,5.07-1.47,3.93-1.43,7.64-3,10.51-6.22a2.5,2.5,0,0,1,1.68-.78c2.76.06,3.82-1.14,5.72-3.45,2.57-3.13,5.72-7.11,10.41-8.21,1.19-.28,2.77-.49,2.37-1.88-1.54-5.24,3.48-6,5.74-6.69,3.19-1,4.82-3,6.88-5,5.43-5.12,10.68-10.3,18.43-12.13,2.22-.53,4-3.3,5.78-5.21s3.14-1.8,5-.13c3.23,2.92,5.22,7,8,9.94,4.67,5.08,7.17,11.36,11.46,16.5.39.47,1.44.83.92,1.49-4.27,5.47-1,11.78-2,17.59-1,5.45-1.15,10.89-3.74,16.25-1.61,3.33-2.09,7.79-3.23,11.71-.31,1.07,0,2.2-.73,3.31-2,3.2-1,6.84,2.41,6.75,4.74-.12,8.79,2.26,13.44,2.36,3.54.07,6.3-1.59,9.32-2.58.88-.29,3.88-1.18,1.7-4.65s6.21-10.95,10.41-9.86c6.36,1.64,12.55,4.16,19.39,3.22,3.24-.44,6.61,3.35,9.84-.2,2.3,4.43,6.42,2.35,9.78,2.59,4.15.28,8.33.09,12.5.06,6.68,0,12.86,1.76,19.17,3.94,3.63,1.25,8.1,1.36,12.18,1.55,7.81.36,15.8-.85,23.45.32,8.78,1.35,17.67.66,26.48,2.77,5.32,1.27,11.56,1.8,17.45-.83,1.79-.81,5.08.72,7.77.6,3.58-.16,5.75-1.32,6.16-5.51.35-3.57,2.64-6.85,1.43-10.76a2.75,2.75,0,0,1,1.82-3.2c1-.34,2.15-.43,2.66.62a3.25,3.25,0,0,1-.32,3.74c-.56.63-2.15.91-.7,2.09,3.82,3.12,6.15,7.9,11.16,9.71,2.75,1,1.64,5.32,5.42,6.08,1.1-1.48,1-6,5.42-3-5.1,4.12-.32,8,.37,12,.06.37,1.05.85,1.6.83,6.58-.24,6.68,4.67,7.19,9.12.26,2.24-.57,4.92,3.16,4.88.92,0,1.4.61,1.57,1.57,1,5.36,3,10.51,2.35,16.17-.3,2.76-1.17,6,1.8,8.31a2.35,2.35,0,0,1,.13,2.33c-4.09,4.66-1.71,10.19-1.89,15.25A19.51,19.51,0,0,1,762.59,598c-1.3,1.34-4.94,2.47-1.57,5.4a1.51,1.51,0,0,1-.41,1.22c-4.86,2.13-2.93,7.84-5.85,11.2a12.56,12.56,0,0,1-3.39,3.21c-3.39,2-7,4.45-6.09,9.54.49,2.72-.67,4.12-3.57,3.75-6.41-.83-12,4.11-18.51,2.69-1-.22-1.54.89-2.17,1.68-2.95,3.7-7,3.67-11.12,2.94a4.75,4.75,0,0,0-1.43-.3c-8,1.27-15.28-3.73-23.28-2.36-2.19.38-4.39.28-4.44-3,0-1.46-1.43-1.59-2.65-1.63-4.2-.12-7.07-3-10.54-4.74-3.77-1.86-5-7.5-10.3-6.79a1.83,1.83,0,0,1-1.34-1.16c-.12-3-.13-6-4.33-6.09.31-4.58-6-4.13-6.45-8.55-.1-1.07-1.12-2.61-1-4a4.54,4.54,0,0,0-3.37-4.85c-4.68-.63-5.26-5-5.5-7.34-.88-8.86-4.35-17.44-2.89-26.57.37-2.35,1.14-5.5-3.16-5.86-1.32-.1-1-1.42-.13-2.21,1.42-1.22,1.07-1.92-.64-2.12-4.12-.47-3-2.77-1.52-4.8,1.69-2.34,1.88-3.85-1.43-4.43-.82-.14-2.09-.83-1.45-1.35,5.17-4.21-2.47-7.08-1-11.4,1.32-3.88.31-8.57.22-12.9,0-1,.07-2.18-1.77-2.1-6.59.29-13.18.52-19.77.52-4,0-6.08,1.58-5.7,5.63.36,3.79-1.07,7.66,1.87,11.35,1.82,2.3-3.21,9.4-6.71,10.3-9.4,2.41-18.43,6.15-28.07,7.68-1.21.19-2.3,1.11-3.43,1.69-4.32-1.28-7.75,1.09-11.35,2.78-4.29,4.82-10.46,2-15.54,3.8-3.07,1.08-6.9-.45-9.52,2.53-.45-.19-.93-.59-1.35-.53-10,1.37-19.39,6.19-29.82,4.92-1-.12-1.22,1-1.68,1.62-4.48,2-9.18.53-13.77.85-3.16.68-7-2.32-9.51,1.8-4.95.77-10.24-.25-14.84,1-8.53,2.37-17.24.84-25.58,2.36a130,130,0,0,1-41,1c-1-.14-2.15,1.34-3.15-.12a5.24,5.24,0,0,0-5.72-1L373.6,573c-15.31-.11-30.4-3.62-45.76-2.94a13.33,13.33,0,0,0-8.46-1.76c-9.24,1.3-18.2-1.34-27.09-2.71-3.58-.55-8.3-.37-11.68-3.13C278.14,559.78,274.9,561.4,272,560.88Z"/><path class="cls-3" d="M168.6,599.55c.62.15,1.24.35,1.87.45,1,.16,2.22.11,2,1.53-.15.89-1.23.87-2,1.09-1.5.41-5.38-1.61-2.95,3.28.45.91-2.69,6.6-6.17,7.88-1.77.65-3.49,2.22-3.56,2.84-.57,4.65-6.82,6.43-5.72,11.94.37,1.8-1.86,1.59-3.05,1.32-5.3-1.21-10.26,1.16-13.1,6-.77,1.32-2.46,3.1-3.62,3-5-.3-9.56,1.33-14.26,2.44-1.83.43-4.09-.57-5.21,1.87-.11.23-.64.53-.82.45-3.42-1.54-7.14-.89-10.63-1.56-1.77-.34-4.2-1.36-5.14-.45-5.38,5.22-9.23.35-13.22-1.87-2.22-1.25-3.82-3.56-6.82-2.9a1.25,1.25,0,0,1-1-.15c-4.69-5-12-5.57-16.89-9.94-3.53-3.15-4.88-8.3-9-11.16,1.2-8-6.8-11.53-9-17.93A19,19,0,0,1,39.4,594c-.75-5.41,1.58-11.06-1.89-16.4-1-1.49.46-4.8,1-7s1.23-3.77-.68-5.55a2.21,2.21,0,0,1-.24-2.77c.54-.94,1.25-.77,2,0,1.22,1.18,2.9,1.46,4,.32a4,4,0,0,0,.33-4.68c-1.6-2-.72-3.11,0-5.16,2.12-6.22,5.51-12,5.3-19.11-.07-2.28.68-6.25,4.88-7.24,2.21-.52,1.84-4,5.33-5.11,3.77-1.16,8.66-1.71,11.53-5.94.82-1.21,4.13-.68,1.38-3.4-.11-.11.1-.83.22-.85,5.47-.76,4.67-6.2,7-8.94,3.73-4.39,8.21-10.21,15.89-7.67,27.3-5.22,54.88-1,82.28-2.55,3.45-.2,5.1,2.72,8.08,2.93.79.06,1.14,1.78.73,2.09-2.93,2.17,1.42,6.05-2,8,3,6.34-3.19,13.28,1.3,19.52,1.64,2.28-1.73,2.87-1.58,5.09.47,6.86-2,12.67-5.94,18.62-3.77,5.68-3.76,13.26-3,20.31.08.69.25,1.31,1,1.47,4.06.84,5.59,1.76.09,2.9a1.23,1.23,0,0,0-1.1,1.4c.54,4.17-3.51,7.38-2.35,11.71a2.43,2.43,0,0,1-1.37,2.91,2.14,2.14,0,0,0-.68,3.41C175.77,596.55,172.13,597.64,168.6,599.55Z"/><path class="cls-3" d="M646.21,453l-12.73,7.21a9.49,9.49,0,0,0-4.9.2c-5.32,2.13-10.69,4.5-16.54,4-5.49-.43-10,3.55-15.46,2.89-.2,0-.54,1.09-.81,1.68h-1.95c-.18-1.26-.68-2.15-2.14-2.27-9.22-.75-18.08-3.85-27.37-4.19l-3.19-.74v-.19l-.21.16c-7-4.45-14.76-8.12-20.2-14.56-6.14-7.27-13.46-13.7-17.85-22.25-2.23-4.34-3-9.46-4.33-14.25-.92-3.25-3.06-5.92-1.63-10.13.71-2.07-1.82-5.92-1.95-9.41-.43-10.65,1-20.85,5.73-30.46,1-2.07.48-4.26,1.57-6.52a33,33,0,0,1,10.85-12.85c3.46-2.45,3.55-6.8,7.13-9.51,4.22-3.21,10.08-4.9,12.48-10.47.19-.44,1.9-.46,2.84-.31a6.71,6.71,0,0,0,7.38-3.48c1.26-2.18,2.89-2.67,5.23-2.58s5,.19,6.65-2.22c.93-1.32,2.48-1.07,3.69-.84,6.73,1.3,13.25-.95,19.72-1,4.44,0,10.26-1.28,14.37,3,2.71,2.8,6.24.15,9.6,1.21,6.13,1.92,11.82,4.65,17.71,7,10.72,4.31,16.58,13.81,24.07,21.56,2.11,2.19,1.52,5.92,4.21,8,6.8,5.28,5.64,14.51,10.24,21,2,2.88-.22,6.53.51,9.77a108.13,108.13,0,0,1-.43,10.82c-.7,5.25-1.37,10.6-3,15.6-1.21,3.66-2.54,7.33-3.82,11-2.36,3-3.4,6.57-4.66,10.06-5.79,3.08-8.4,9.41-13.65,13.22C650.24,445.38,648.54,449.61,646.21,453Zm-18.15-69.48c2.74-19.11-18.2-30.87-31.15-31.31-13.36-.44-31.47,14.11-31,26.74.39,9.95-1.85,20.35,8.14,27.61,7.23,5.26,14.16,10.67,23.77,10.39C612.61,416.48,630.41,401.22,628.06,383.48Z"/><path class="cls-3" d="M327.19,489c-16.32,2.5-32,1.8-47.62,2-8.77.12-17.55.6-26.32,1.06a20.71,20.71,0,0,1-9-1.78c-4.5-1.87-9.58-16.2-6.78-20.11,1.6-2.23,5.05-3,7.45-4.83,3.5-2.74,7.25-4.89,9.34-9.25a16.89,16.89,0,0,1,6.35-6.41c1.71-1.08,3.34-2.52,3.85-4.45,1.27-4.78,3.77-4.66,6.18-1.34,3.94,5.43,10.7,5.24,15.85,8.28a20.06,20.06,0,0,1,7.61,8.77c2,4.24,5.86,5.43,8.66,7.43,4.39,3.13,7.11,7.5,9.9,11.41,2.26,3.17,4.88,4.72,7.73,5C323.48,485.22,325.11,486.54,327.19,489Z"/><path class="cls-1" d="M420.75,513.91c-1,2.1-2.92,1-4.36,1q-37.44.12-74.9.06c-2,0-3.95.23-5.53-1.52-1-1.11-2.51-.92-3.72-.34-2.86,1.39-5.53,1.15-8.46,0-3.41-1.32-7.25.52-10.72-1,8.85-.64,17.73-2.55,26.42,1.12,1.44.61,3.27.4,4.92.41Q382.58,513.82,420.75,513.91Z"/><path class="cls-1" d="M327.84,570c15.36-.68,30.45,2.83,45.76,2.94l-.42,1.9c-3.89-1.93-7.83,4-11.75-.07a2.34,2.34,0,0,0-1.76-.72c-7.81,1.27-15.1-2.54-22.8-2.29A24.32,24.32,0,0,1,327.84,570Z"/><path class="cls-1" d="M595.77,469c.27-.59.61-1.7.81-1.68,5.45.66,10-3.32,15.46-2.89,5.85.47,11.22-1.9,16.54-4a9.49,9.49,0,0,1,4.9-.2c-3.8,6.23-10.31,6.06-16.32,6.53a36.31,36.31,0,0,0-12.26,2.83C601.88,470.89,598.65,471.64,595.77,469Z"/><path class="cls-1" d="M564.31,462.51c9.29.34,18.15,3.44,27.37,4.19,1.46.12,2,1,2.14,2.27a3.08,3.08,0,0,1-4.18,1.62c-3.93-2.06-8.5-1.58-12.41-3.67-3.38-1.81-7.71-.1-11-2.59C565.49,463.8,564.16,463.93,564.31,462.51Z"/><path class="cls-1" d="M646.21,453c2.33-3.35,4-7.58,7.15-9.85,5.25-3.81,7.86-10.14,13.65-13.22.9,2.7-1.22,4.56-2.4,6.2C659.66,442.93,654.15,449.32,646.21,453Z"/><path class="cls-1" d="M671.67,419.83c1.28-3.66,2.61-7.33,3.82-11,1.65-5,2.32-10.35,3-15.6a108.13,108.13,0,0,0,.43-10.82c2,5.81,1.31,11.64.31,17.51-.91,5.32-3.92,10.09-3.9,15.66C675.37,417.92,674.35,419.68,671.67,419.83Z"/><path class="cls-1" d="M490.43,567.28c.46-.65.71-1.74,1.68-1.62,10.43,1.27,19.84-3.55,29.82-4.92.42-.06.9.34,1.35.53-.21.42,1.06,1.35-.24,1.27-3.3-.21-6.18,1.08-9.23,1.79C506.22,566.09,498.54,569,490.43,567.28Z"/><path class="cls-1" d="M283.33,510.63l-15.59-3.74c4.58-.06,9.39-2.27,13.54,1.54.33.3,1.16.63,1.27.51,4.06-4.39,7.32,2.32,11.17.82.15-.06.62.7.95,1.07-.58,2.34-2,2.28-3.79,1.38l-.49-.79c-1.62-1.27-3.57-.64-5.36-.91C284.41,509.71,283.86,510.06,283.33,510.63Z"/><path class="cls-1" d="M597.2,483.64c-2.14,0-4.3.14-6.44,0-1.86-.15-3-2.26-1.49-2.8,2.82-1,5.88-2.79,8.93-2a21.94,21.94,0,0,0,4.68,1.08c1.19.06,2.45.24,2.52,1.75.08,1.87-1.38,2-2.74,2-1.82.05-3.64,0-5.46,0Z"/><path class="cls-1" d="M268.58,395.38c-3-4-.86-8.5-1.13-12.76C270.11,386.68,268.08,391.14,268.58,395.38Z"/><path class="cls-1" d="M224,549.59c4.24.24,8.56-1,12.72.65C232.43,550.85,228.13,551.93,224,549.59Z"/><path class="cls-1" d="M548.34,554.94c3.6-1.69,7-4.06,11.35-2.78C556,553.5,552.76,556.62,548.34,554.94Z"/><path class="cls-1" d="M563.62,476.66c-1.12-.48-3.4,0-3.06-2.07.21-1.3.72-3.25,3.05-3.26s2.67,1.8,2.87,3.33C566.73,476.56,565.07,476.53,563.62,476.66Z"/><path class="cls-1" d="M108.23,406.63c4.85,1.39,2,5.11,2.38,7.85C105,413.31,108.55,409.39,108.23,406.63Z"/><path class="cls-1" d="M272,560.88c2.86.52,6.1-1.1,8.57,1.55C277.77,561.8,274.42,564,272,560.88Z"/><path class="cls-1" d="M467.15,569.93c2.5-4.12,6.35-1.12,9.51-1.8C474.2,572.47,470.32,569.34,467.15,569.93Z"/><path class="cls-1" d="M376.91,573.12a5.24,5.24,0,0,1,5.72,1l-.28,0-.7-.09.59,1.05C379.57,576.87,377.85,576.07,376.91,573.12Z"/><path class="cls-1" d="M108.1,395.4c.13,1.93.66,3.85,0,5.77C105.08,399.25,105.79,397.32,108.1,395.4Z"/><path class="cls-1" d="M423,511.56c.17.84-.18,1.18-1,1.06C421.6,511.59,422.18,511.47,423,511.56Z"/><polygon class="cls-1" points="560.92 461.74 561.13 461.57 561.12 461.77 560.92 461.9 560.92 461.74"/><path class="cls-3" d="M382.24,575.07l-.59-1.05.7.09a3.14,3.14,0,0,1,.15.66C382.51,574.87,382.34,575,382.24,575.07Z"/><path class="cls-2" d="M156.42,386.29c-.18-4.19,2.18-11.71,9.22-16.29,4.91-3.2,8.66-7.95,14.65-9.84,6.24-2,11.21-1,16,3.23,1,.91,3.49.07,4.69.91,7.27,5.06,13.22,10.57,16,20.06,1.92,6.69.76,12.05-.48,18-.75,3.66-3.09,6.59-5.23,9.18-5,6.07-11.77,10.31-19.09,13.17-3.76,1.47-7.5-1.57-11.39-2.09-5.24-.7-10.08-3.4-14.46-7.39C158.69,408.32,156.37,400,156.42,386.29Z"/><path class="cls-2" d="M283.33,510.63c.53-.57,1.08-.92,1.7-.12Z"/><path class="cls-2" d="M290.39,511.42l.49.79A3.59,3.59,0,0,1,290.39,511.42Z"/><path class="cls-2" d="M628.06,383.48c2.35,17.74-15.45,33-30.21,33.43-9.61.28-16.54-5.13-23.77-10.39-10-7.26-7.75-17.66-8.14-27.61-.5-12.63,17.61-27.18,31-26.74C609.86,352.61,630.8,364.37,628.06,383.48Z"/></g></g></svg>